<svg id="Layer_1" data-name="Layer 1" xmlns="http://www.w3.org/2000/svg" viewBox="0 0 1170.22 284.07"><title>wola-logo</title><polygon points="0 0 122.24 280 154.69 280 32.3 0 0 0"/><polygon points="174.01 129.68 239.68 280 267.43 280 385.96 0 364.07 0 258.76 249.85 149.74 0 117.43 0 162.45 103.66 174.01 129.68"/><path d="M635.53,245.68q-39.82,38.38-108.75,38.39-69.34,0-108.76-38T378.61,141.26q0-66,39.62-102.35T526.78,2.59q68.93,0,108.75,36.32t39.83,102.35Q675.36,207.31,635.53,245.68ZM620.67,53.15Q587,22,526.78,22q-59.85,0-93.49,31.17t-33.63,88.11q0,57,33.84,90.18t93.28,33.23q60.26,0,93.89-32.81t33.64-90.6Q654.31,84.31,620.67,53.15Z"/><path d="M709.13,281V2h21V262h177v19Z"/><polyline points="1033.93 31.43 1147.14 281 1170.22 281 1043.43 1 1024.02 1 892.7 281 916.6 281"/></svg>